<?xml version="1.0" encoding="UTF-8"?>
<svg width="375px" height="724px" viewBox="0 0 375 724" version="1.1" xmlns="http://www.w3.org/2000/svg" xmlns:xlink="http://www.w3.org/1999/xlink">
    <!-- Generator: Sketch 47.1 (45422) - http://www.bohemiancoding.com/sketch -->
    <title>TableBackground</title>
    <desc>Created with Sketch.</desc>
    <defs>
        <linearGradient x1="100%" y1="100%" x2="0%" y2="0%" id="linearGradient-1">
            <stop stop-color="#02BAFF" offset="0%"></stop>
            <stop stop-color="#89FFC0" offset="100%"></stop>
        </linearGradient>
        <linearGradient x1="50%" y1="0%" x2="50%" y2="100%" id="linearGradient-2">
            <stop stop-color="#FFFFFF" stop-opacity="0.5" offset="0%"></stop>
            <stop stop-color="#000000" stop-opacity="0.5" offset="100%"></stop>
        </linearGradient>
        <rect id="path-3" x="0" y="0" width="375" height="733.164557"></rect>
        <path d="M0,224.531646 C115.437289,258.690541 192.925949,274.056394 232.465982,270.629204 C272.006015,267.202013 319.517354,251.836161 375,224.531646 L375,733.164557 L0,733.164557 L0,224.531646 Z" id="path-4"></path>
        <path d="M0,223.813561 C108.68283,197.037975 180.230725,190.344078 214.643687,203.731871 C249.05665,217.119664 302.508754,223.813561 375,223.813561 L375,733.164557 L0,733.164557 L0,223.813561 Z" id="path-5"></path>
        <path d="M0,234.163757 C0,228.175286 6.07153217e-15,217.046695 1.82145965e-14,200.777984 C14.0077165,192.982558 55.9495469,199.606312 77.5391979,200.777984 C132.966489,203.786026 193.905173,245.768151 254.128251,247.955314 C294.27697,249.413422 334.567553,244.816236 375,234.163757 L375,733.164557 L0,733.164557 L0,234.163757 Z" id="path-6"></path>
    </defs>
    <g id="Main-Story" stroke="none" stroke-width="1" fill="none" fill-rule="evenodd">
        <g id="Subject-TableView-Empty-Subject" transform="translate(0.000000, -88.000000)">
            <g id="TableBackground" transform="translate(0.000000, 88.000000)">
                <g id="Rectangle">
                    <g>
                        <use fill="url(#linearGradient-1)" xlink:href="#path-3"></use>
                        <use fill="url(#linearGradient-2)" xlink:href="#path-3"></use>
                    </g>
                    <g opacity="0.807461504">
                        <use fill="url(#linearGradient-1)" xlink:href="#path-4"></use>
                        <use fill="url(#linearGradient-2)" xlink:href="#path-4"></use>
                    </g>
                    <g opacity="0.564990942">
                        <use fill="url(#linearGradient-1)" xlink:href="#path-5"></use>
                        <use fill="url(#linearGradient-2)" xlink:href="#path-5"></use>
                    </g>
                    <g opacity="0.564990942">
                        <use fill="url(#linearGradient-1)" xlink:href="#path-6"></use>
                        <use fill="url(#linearGradient-2)" xlink:href="#path-6"></use>
                    </g>
                </g>
            </g>
        </g>
    </g>
</svg>